<?xml version="1.0" encoding="UTF-8"?> <svg xmlns="http://www.w3.org/2000/svg" width="998" height="998" viewBox="0 0 998 998" fill="none"><g clip-path="url(#clip0_1626_1391)"><circle cx="499" cy="499" r="499" fill="#D92B3A"></circle><path d="M259.403 454.062L466.406 258C501.352 292.939 487.961 343.094 466.406 364.648L337.029 486.739L337.029 658.293L401.71 658.293L401.71 606.167C401.71 530.857 452.413 509.77 487.961 509.77C487.961 537.484 487.961 587.903 487.961 595.547L487.961 739.986L337.029 739.986C268.029 739.986 256.528 680.078 259.403 650.124L259.403 454.062Z" fill="white"></path><path d="M740.604 454.062L533.602 258C498.656 292.939 512.047 343.094 533.602 364.648L662.978 486.739L662.978 658.293L598.298 658.293L598.298 606.167C598.298 530.857 547.595 509.77 512.047 509.77C512.047 537.484 512.047 587.903 512.047 595.547L512.047 739.986L662.978 739.986C731.979 739.986 743.479 680.078 740.604 650.124L740.604 454.062Z" fill="white"></path></g><defs><clipPath id="clip0_1626_1391"><rect width="998" height="998" fill="white"></rect></clipPath></defs></svg> 